<?xml version="1.0" encoding="utf-8"?>
<!-- Generator: Adobe Illustrator 26.0.2, SVG Export Plug-In . SVG Version: 6.00 Build 0)  -->
<svg version="1.1" id="Layer_1" xmlns="http://www.w3.org/2000/svg" xmlns:xlink="http://www.w3.org/1999/xlink" x="0px" y="0px"
	 viewBox="0 0 200.52 201.17" style="enable-background:new 0 0 200.52 201.17;" xml:space="preserve">
<style type="text/css">
	.st0{fill:#F1F2F2;}
</style>
<g>
	<path class="st0" d="M35.61,56.96c4.12-2.04,8.17-4.24,12.38-6.09c13.1-5.74,17.96-0.25,20.74,10.7
		c1.85,7.29,2.24,14.99,2.89,22.54c1.14,13.43,2.53,26.8,7.71,39.4c2.69,6.54,6.46,12.72,14.28,13.08c4.46,0.2,9.62-0.91,13.43-3.18
		c9.37-5.57,18.46-11.73,27.08-18.41c16.91-13.11,33.33-26.86,50.18-40.04c3.96-3.1,6.29-6.61,6.96-11.42
		c0.7-5.01,1.38-10.03,2.5-15.17c0,3.35,0.19,6.71-0.07,10.04c-0.17,2.2-1.1,4.33-1.5,6.52c-0.16,0.87-0.16,2.23,0.36,2.7
		c3.05,2.71,1.68,4.72-0.77,6.7c-0.58,0.47-1.11,0.98-1.1,0.97c-0.24,3.37-0.11,6.18-0.68,8.85c-1.66,7.86-4.62,15.19-9.38,21.76
		c-10.71,14.77-22.36,28.74-36.74,40.05c-15.3,12.03-33.24,18.15-52.21,21.52c-8.47,1.5-16.91,1.14-25-1.79
		c-13.5-4.88-20.42-15.84-24.71-28.62c-6.69-19.94-3.65-39.28,4.7-58.07c0.64-1.45,1.95-2.6,3.19-3.69
		c-4.86,7.51-6.43,16.05-7.67,24.53c-2.49,17.02,0.34,33.19,9.14,48.15c7.49,12.72,19,17.45,33.13,15.9
		c31.5-3.46,57.45-17.44,77.59-42.02c4.57-5.58,9.22-11.11,13.67-16.79c5.83-7.46,9.24-16.01,11.16-26.05
		c-1.26,0.84-2.02,1.27-2.69,1.82c-19.32,15.7-38.51,31.56-58.01,47.03c-7.99,6.35-16.67,11.75-27.07,13.64
		c-8.75,1.59-15.41-1.63-20.3-8.64c-6.3-9.02-8.69-19.52-10.06-30.17c-1.58-12.32-2.53-24.72-3.8-37.08
		c-0.17-1.67-0.63-3.3-1.01-5.24C49,74.99,33.11,87.5,15.36,97.58C30.99,83.8,47.41,70.94,62.03,56.15c-2.84-4-5.55-4.86-10.28-2.77
		c-10.6,4.69-20.08,11.14-27.49,20.08C18.91,79.93,14.35,87.05,9,93.8c0.65-2.01,1.1-4.1,1.97-6.01
		c5.61-12.4,14.36-22.31,24.73-30.91L35.61,56.96z"/>
	<path class="st0" d="M6.21,92.57c-0.57-2.23-1.81-4.53-1.58-6.67c0.64-5.89,1.2-11.93,3.02-17.52
		c6.58-20.17,19.16-34.81,39.86-41.77c5.85-1.97,11.59-2.74,17.53-1.56c7.73,1.54,13.26,7.17,14.1,15.44
		c0.89,8.76,0.53,17.63,1.2,26.42c0.48,6.27,1.32,12.58,2.8,18.68c1.11,4.59,4.51,7.92,8.88,10.05c4.31,2.1,6.73,2.04,10.03-1.57
		c3.34-3.65,6.25-7.73,9.14-11.76c5.92-8.28,12.41-15.97,21.63-20.71c16.45-8.45,33.21-8.27,50.06-1.22
		c1.79,0.75,3.31,2.12,4.49,2.89c-5.36-1.36-11.05-3.54-16.92-4.17c-18.93-2.02-35.85,2.31-48.71,17.46
		c-4.75,5.59-9.24,11.4-13.91,17.06c-8.97,10.87-18.88,8.06-26.2-2.02c-6.51-8.96-6.34-19.6-6.13-30.12
		c0.12-5.95,0.25-11.92-0.15-17.84C74.49,30.5,65.26,26.72,54.41,29.06c-19.11,4.12-32.26,15.99-40.05,33.63
		c-2.83,6.41-4.38,13.4-6.27,20.19c-0.47,1.69,0.04,3.64,0.01,5.46c-0.02,1.34-0.18,2.68-0.28,4.02C7.29,92.43,6.75,92.5,6.21,92.57
		z"/>
	<path class="st0" d="M89.02,70.36c0.77-4.34,1.38-8.72,2.37-13c0.7-3.03,0.62-5.05-3.18-5.33c-1.07-0.08-2.07-1.06-3.11-1.62
		c0.61-1.02,0.97-2.51,1.87-3c7.54-4.16,10.1-11.45,12.34-19.01c0.53-1.78,1.15-3.58,2.03-5.21c0.71-1.31,1.87-2.38,2.82-3.56
		c0.8,1.19,1.81,2.28,2.35,3.58c1.23,2.95,2.23,6.01,3.45,9.35c6.24-2.75,12.07-5.32,17.9-7.88c0.18,0.25,0.35,0.5,0.53,0.75
		c-2.3,2.69-4.6,5.37-6.89,8.07c-1.45,1.71-2.77,3.54-4.33,5.13c-2.42,2.48-2.83,4.91-0.86,7.93c2.9,4.46,5.55,9.08,8.69,14.25
		c-1.47-0.13-2.62-0.07-3.67-0.36c-4.55-1.26-9.13-2.49-13.6-3.99c-2.35-0.79-3.85-0.47-5.43,1.54c-2.69,3.42-5.65,6.63-8.59,9.84
		c-1.05,1.15-2.37,2.06-3.57,3.09C89.77,70.73,89.4,70.55,89.02,70.36z M107.89,36.86c-1.83,1.26-3.38,3.04-5.24,3.46
		c-4.24,0.96-5.01,3.93-5.75,7.45c-0.47,2.23,0.23,3.64,2.08,3.95c1.35,0.23,3.31-0.29,4.27-1.22c1.74-1.69,2.61-4.36,4.45-5.87
		C110.93,41.99,109.87,39.71,107.89,36.86z M104.51,21.99c-0.43-0.03-0.86-0.06-1.28-0.09c-1.4,5.23-2.81,10.46-4.42,16.49
		c2.95-1.52,5.09-2.48,7.06-3.71c0.62-0.39,1.22-1.59,1.09-2.27C106.27,28.91,105.35,25.46,104.51,21.99z M119.31,57.88
		c0.21-0.26,0.42-0.52,0.64-0.78c-2.58-3.52-5.16-7.03-7.94-10.82c-1.9,2.47-3.67,4.77-5.62,7.31
		C110.96,55.11,115.13,56.49,119.31,57.88z M94.98,54.23c-1.4,4.13-2.7,7.94-3.99,11.75c0.27,0.14,0.55,0.29,0.82,0.43
		c2.61-3.65,5.23-7.31,8.07-11.28C98.07,54.79,96.78,54.56,94.98,54.23z M92.48,51.13c0.37-2.08,0.67-3.8,1.13-6.36
		c-3.04,1.95-5.26,3.38-7.48,4.8c0.08,0.37,0.17,0.74,0.25,1.11C88.35,50.82,90.32,50.97,92.48,51.13z M119.72,31.55
		c-0.21-0.21-0.41-0.41-0.62-0.62c-2.58,1.36-5.16,2.73-8,4.23c0.63,1.16,1.12,2.07,1.86,3.45
		C115.42,36.04,117.57,33.79,119.72,31.55z"/>
	<path class="st0" d="M155.29,65.03c-12.22,12.94-18.86,28.42-24.89,44.24c-0.51-0.16-1.02-0.32-1.53-0.48
		c0-2.46-0.5-5.05,0.08-7.36c2.87-11.37,7.62-21.82,16.08-30.25c0.41-0.41,0.76-0.86,1.47-1.67c-8.51,3.81-19.24,15.44-29.59,31.77
		C113.8,91.04,142.97,62.5,155.29,65.03z"/>
	<path class="st0" d="M175.64,25.95c-1.54-0.06-3.15-0.44-4.6-0.12c-5.42,1.22-9.85-0.17-13.23-4.58c-1.81-2.37-3.47-4.85-5.2-7.28
		c-2.95-4.14-5.02-4.94-9.88-3.48c-4.27,1.29-8.5,2.73-12.72,4.18c-5.67,1.95-11.11,1.75-15.81-2.21
		c-4.45-3.74-8.82-3.78-13.64-0.92c-4.91,2.92-9.84,5.85-14.94,8.4c-2.45,1.22-5.32,1.59-8.97,2.61c5.47-2.85,9.95-5.17,14.41-7.51
		c2.31-1.22,4.62-2.43,6.88-3.74c6.13-3.53,11.95-4.25,17.88,0.75c3.27,2.75,7.38,2.48,11.39,1.27c5.12-1.54,10.23-3.13,15.41-4.43
		c5.77-1.44,8.82-0.17,12.2,4.63c0.64,0.91,1.29,1.84,1.78,2.84c3.13,6.39,7.99,9.59,15.3,8.73c1.19-0.14,2.47,0.56,3.71,0.88
		C175.6,25.98,175.64,25.95,175.64,25.95z"/>
	<path class="st0" d="M35.7,56.89c-4.1,1.11-5.02-1.82-5.75-4.87c-1.71,1.15-3.19,2.14-4.68,3.14c-0.25-0.27-0.51-0.54-0.76-0.81
		c4.31-7.16,10.09-13.05,16.33-18.71c0.55,0.69,0.84,1.02,0.82,1.04c-4.46,4.55-1,10.88-3.56,15.84c-0.78,1.51-1.66,2.97-2.49,4.45
		C35.61,56.96,35.7,56.89,35.7,56.89z"/>
	<path class="st0" d="M27.48,157.07c-6.22-10.23-8.49-21.77-10.41-33.43C20.54,134.79,24.01,145.93,27.48,157.07z"/>
	<path class="st0" d="M77.4,197.3c6.04-1.98,12.16-3.76,18.1-6c6.83-2.57,13.62-3.93,20.79-1.47c-9.57-1.73-18.01,1.93-26.67,5.07
		c-3.85,1.39-8.2,1.41-12.32,2.05C77.34,197.07,77.37,197.18,77.4,197.3z"/>
	<path class="st0" d="M174,145.53c-5.34,9.01-6.24,20.69-15.91,27.07C165.86,165.02,167,153.54,174,145.53z"/>
	<path class="st0" d="M36.7,160.42c6.66,7.85,8.86,17.12,12.2,25.79C44.97,177.89,41.04,169.58,36.7,160.42z"/>
	<path class="st0" d="M140.9,174.92c-4.45,5.27-8.91,10.55-13.36,15.82c-0.3-0.31-0.6-0.63-0.91-0.94
		c4.92-4.81,9.84-9.62,14.76-14.43C141.23,175.21,141.06,175.06,140.9,174.92z"/>
	<path class="st0" d="M175.6,25.98c2.97-0.55,3.61,1.8,4.18,3.71c1.15,3.86,1.96,7.83,2.15,11.96c-0.89-3.39-1.56-6.86-2.76-10.13
		c-0.74-2.02-2.3-3.74-3.51-5.58C175.64,25.95,175.6,25.98,175.6,25.98z"/>
	<path class="st0" d="M189,111.56c-0.68,4.45-1.36,8.91-2.03,13.36c-0.32-0.04-0.64-0.09-0.97-0.13c0.63-4.46,1.25-8.92,1.88-13.38
		C188.26,111.46,188.63,111.51,189,111.56z"/>
	<path class="st0" d="M7.85,124.05c0.75-5.73,1.51-11.46,2.26-17.19c0.27,0.03,0.55,0.07,0.82,0.1c-0.81,5.72-1.61,11.44-2.42,17.16
		C8.29,124.1,8.07,124.08,7.85,124.05z"/>
	<path class="st0" d="M188.57,107.32c0-3.19,0-6.39,0-9.58c0.15,0.01,0.3,0.02,0.44,0.03c0,3.19,0,6.38,0,9.57
		C188.86,107.33,188.71,107.32,188.57,107.32z"/>
</g>
</svg>
